<svg width="18" height="18" viewBox="0 0 18 18" fill="none" xmlns="http://www.w3.org/2000/svg">
<path d="M8.93277 17C13.3139 17 16.8655 13.4183 16.8655 9C16.8655 4.58172 13.3139 1 8.93277 1M8.93277 17C4.55162 17 1 13.4183 1 9M8.93277 17C11.1605 17 12.9664 13.4183 12.9664 9C12.9664 4.58172 11.1605 1 8.93277 1M8.93277 17C6.70507 17 4.89916 13.4183 4.89916 9C4.89916 4.58172 6.70507 1 8.93277 1M1 9C1 4.58172 4.55162 1 8.93277 1M1 9H17M3.95798 2.69492C3.95798 2.69492 9.22405 5.13559 13.9076 2.69492M13.9076 15.3051C13.9076 15.3051 8.6415 12.8644 3.95798 15.3051" stroke="#323F46"/>
</svg>
